inDegrees=no
num_controls=7
num_derivatives=13
num_iterations=162
num_multipliers=7
num_parameters=0
num_slacks=7
num_states=26
objective=5.617332
objective_accelerations=0.425533
objective_balance=0.049818
objective_effort=0.400514
objective_height=4.646299
objective_ligament=0.095168
solver_duration=1656.298545
status=Solve_Succeeded
success=true
DataType=double
version=3
OpenSimVersion=4.4-2022-07-23-0e9fedc
endheader
time	/jointset/ground_pelvis/pelvis_tilt/value	/jointset/ground_pelvis/pelvis_tx/value	/jointset/ground_pelvis/pelvis_ty/value	/jointset/hip_l/hip_flexion_l/value	/jointset/hip_l/hip_adduction_l/value	/jointset/hip_l/hip_rotation_l/value	/jointset/back/lumbar_extension/value	/jointset/patellofemoral_l/patellar_flexion_l/value	/jointset/knee_l/knee_flexion_l/value	/jointset/knee_l/knee_adduction_l/value	/jointset/knee_l/knee_rotation_l/value	/jointset/ankle_l/ankle_angle_l/value	/jointset/subtalar_l/subtalar_angle_l/value	/jointset/ground_pelvis/pelvis_tilt/speed	/jointset/ground_pelvis/pelvis_tx/speed	/jointset/ground_pelvis/pelvis_ty/speed	/jointset/hip_l/hip_flexion_l/speed	/jointset/hip_l/hip_adduction_l/speed	/jointset/hip_l/hip_rotation_l/speed	/jointset/back/lumbar_extension/speed	/jointset/patellofemoral_l/patellar_flexion_l/speed	/jointset/knee_l/knee_flexion_l/speed	/jointset/knee_l/knee_adduction_l/speed	/jointset/knee_l/knee_rotation_l/speed	/jointset/ankle_l/ankle_angle_l/speed	/jointset/subtalar_l/subtalar_angle_l/speed	/forceset/tau_hip_flexion_l	/forceset/tau_hip_adduction_l	/forceset/tau_hip_rotation_l	/forceset/tau_knee_flexion_l	/forceset/tau_ankle_angle_l	/forceset/tau_subtalar_angle_l	/forceset/tau_lumbar_extension	lambda_cid13_p0	lambda_cid13_p1	lambda_cid13_p2	lambda_cid13_p3	lambda_cid13_p4	lambda_cid13_p5	lambda_cid14_p0	/jointset/ground_pelvis/pelvis_tilt/accel	/jointset/ground_pelvis/pelvis_tx/accel	/jointset/ground_pelvis/pelvis_ty/accel	/jointset/hip_l/hip_flexion_l/accel	/jointset/hip_l/hip_adduction_l/accel	/jointset/hip_l/hip_rotation_l/accel	/jointset/back/lumbar_extension/accel	/jointset/patellofemoral_l/patellar_flexion_l/accel	/jointset/knee_l/knee_flexion_l/accel	/jointset/knee_l/knee_adduction_l/accel	/jointset/knee_l/knee_rotation_l/accel	/jointset/ankle_l/ankle_angle_l/accel	/jointset/subtalar_l/subtalar_angle_l/accel	gamma_cid13_p0	gamma_cid13_p1	gamma_cid13_p2	gamma_cid13_p3	gamma_cid13_p4	gamma_cid13_p5	gamma_cid14_p0
1.5	0.08374415636922514	0.03013999692458631	0.8773302366491437	0.4880877139109103	-0.3214865602707535	-0.1566053743326656	-0.7751739728536112	0.7152023011384984	0.7152023011383556	-0.1081223578029321	-0.174531250067026	0.1988784746310742	0.04339500057619768	0.1224796096934671	0.1567374122520211	0.3196321786956238	-1.495774943929391	0.1045378127469741	-0.5896009238005737	0.8453859251361121	-1.834655924382633	-1.834655924382646	-0.1254880651974424	-5.138582709813005e-05	-0.57338779640864	-0.09305266999895333	-0.1406064178611504	0.0293806657673472	-0.005225604655542876	-0.2251499994259854	0.01674702118625132	0.03688392633451023	0.2438003471190456	-36.82062820526494	-12.72699580677321	5.17887168091646	-1.750516381442979	-673.4072877441066	-76.71715672113061	-17.47757146342824	-0.2276517228209532	0.4034643135499246	-0.5273747834306174	-0.3248949301919515	0.3661539635326447	-0.287657450560208	1.606957586548737	-0.8528722187679108	-0.8528722187679132	-0.3038289527687044	0.03485151923637096	-0.2893562148417775	0.3618202934201694	7.4667584432778e-08	1.389168748322772e-06	-2.113395719586744e-07	1.673671383836019e-07	1.410121841849533e-07	6.912113821017587e-07	1.347707434602213e-07
1.51	0.08495757322504557	0.03172743623547757	0.8804996074607971	0.4731150561502694	-0.3204233251323395	-0.1625167623486672	-0.7666408782608634	0.6968152426115252	0.6968152426113884	-0.109392445343628	-0.1745317895606472	0.1931308150671604	0.04248219279819424	0.1201934340287765	0.1607372401776692	0.3141830710601687	-1.498582035119493	0.1081069296987606	-0.5926147648937911	0.8611324452492046	-1.842517226764284	-1.842517226764401	-0.1285283844926369	-5.137793134983581e-05	-0.5760515506512941	-0.08948660546593823	-0.1351905838398078	0.02805851653074659	-0.005140444165564448	-0.2219006499378016	0.01927818442407634	0.03621534216705426	0.2382289795165258	-35.86981720016805	-12.62662063195072	5.189723965579772	-2.020834381348162	-670.3242615630219	-76.71295775434072	-18.10102655981517	-0.2306588401967374	0.3963009536797361	-0.5624924612164433	-0.2324423005960617	0.3517918453717345	-0.2988324126980959	1.543416999237244	-0.7170027838727965	-0.717002783888221	-0.3037383414003982	-0.01665813628861223	-0.2409534746024044	0.3571081949209555	5.770591933888294e-08	1.492899877849134e-06	-1.333810870374472e-07	1.901724872123364e-07	1.244336113365482e-07	6.943325445883098e-07	1.338432628229362e-07
1.52	0.08614781665383087	0.03335448560994798	0.8836127244545735	0.4581195622602936	-0.3193244985675333	-0.1684564057703977	-0.7579533349118762	0.6783567223535419	0.6783567223533977	-0.1106928570619953	-0.174532175687542	0.187359304271695	0.04160566739785664	0.1178449242879292	0.1646594249678535	0.3083814151201594	-1.500342169796634	0.1116560980253495	-0.5952520049468382	0.8762756763841664	-1.848948270586304	-1.848948270586524	-0.131552900728053	-2.071247691620534e-05	-0.5781580427189646	-0.08579619446577608	-0.129774749818426	0.02673636729415651	-0.005055283675780751	-0.2186513004495991	0.02180934766190258	0.0355467579996155	0.2326576119140293	-34.92068837927208	-12.52700134986955	5.201896941690735	-2.310756062481848	-667.2871624921645	-76.73268051881918	-18.71195396491675	-0.2401185380521736	0.3879356864570991	-0.5978844443414727	-0.1155036275997184	0.3621642384932239	-0.2123372425260875	1.486299790922698	-0.5668205068414901	-0.5668205068415482	-0.3006683408129944	0.04098303097347356	-0.1779037798451844	0.3866895868495693	3.815102547845062e-08	1.541703811052001e-06	-5.708418819823007e-08	2.070141489794449e-07	1.015259570904039e-07	6.717868747573192e-07	1.28810782514909e-07
1.53	0.0873141916286308	0.03502029329549868	0.8866660795644348	0.4431119990601963	-0.3181902496929014	-0.1744206858731266	-0.7491174132800162	0.6598413040383582	0.6598413040382152	-0.1120231945265453	-0.1745322197744192	0.1815695752617242	0.04076673184250041	0.1154239055216602	0.1684812935458342	0.3022350999192551	-1.500986732150476	0.1151851688911353	-0.5975420390367641	0.8907902026968003	-1.853881693057035	-1.853881693057029	-0.1345130483723229	9.259194597131338e-06	-0.5796944518198036	-0.08197624924409112	-0.1243637275325568	0.02546758314979909	-0.005017383897973534	-0.2152612981729284	0.02404025197505398	0.03481137044775045	0.2270428935485549	-34.07772964438977	-12.37755988022942	5.203590967279042	-2.453660086062996	-664.3131822574749	-76.67036292634792	-19.302309776987	-0.2440314055247945	0.3762342825103988	-0.6311698919185839	-0.01138906155757546	0.3468201378497009	-0.2279359925150072	1.416261957937331	-0.4185710857148228	-0.4185710856806425	-0.2932133703451565	-0.01637166672608787	-0.1274710180314318	0.3815996536375025	1.58408260535725e-08	1.532147598161156e-06	1.744727542885147e-08	2.175193932435759e-07	7.189365385916186e-08	6.219701955889411e-07	1.194167400567181e-07
1.54	0.08845616884384758	0.03672370403463868	0.8896563385554969	0.4281034989321126	-0.3170210017841572	-0.1804059862168199	-0.7401398998037294	0.6412841579047664	0.6412841579046202	-0.1133830385463754	-0.1745320393250221	0.1757672898521782	0.039966386272123	0.1129653723709496	0.1721800356857145	0.2957621913602638	-1.500529555395536	0.1186559048460576	-0.5994560531382626	0.9045940452695359	-1.857293834268798	-1.857293834268565	-0.1374542117810391	2.419478744646493e-05	-0.5806693226337765	-0.07807819747002995	-0.1189527052466563	0.02419879900542862	-0.004979484120259594	-0.2118712958962463	0.02627115628819559	0.03407598289585746	0.2214281751831041	-33.23897105459623	-12.22783699526049	5.205758990095848	-2.608158779408543	-661.421434818565	-76.62992450948012	-19.86840606573644	-0.2476214149403667	0.3633103988369575	-0.6632031159588863	0.1048441941566829	0.3504972563205404	-0.1371332448406617	1.344163042943147	-0.2625642550475	-0.2625642550475033	-0.2968714937022403	0.03797581524054428	-0.06559612247203074	0.4023108973247574	1.026365259093095e-08	1.528797551743273e-06	1.609317688178928e-08	2.194383254161489e-07	6.568760326700976e-08	6.111097374670096e-07	1.196112041649771e-07
1.55	0.08957331715766607	0.03846342532456971	0.892580287995655	0.4131051983539496	-0.3158174038437936	-0.1864083623481813	-0.7310282064980128	0.6227005504612174	0.6227005504611745	-0.1147723821532513	-0.1745316889725513	0.1699580303653053	0.03920532286857592	0.1104525500226817	0.1757366956111223	0.2889782169673946	-1.498928156513984	0.1220541397219069	-0.6009557753396307	0.9175944286961922	-1.85916119993164	-1.859161199931497	-0.1404021111757084	4.427447857174898e-05	-0.581088175825325	-0.0741204267761665	-0.1130652161508378	0.0225276778852745	-0.005019391309418349	-0.2090706377964361	0.02913238883094833	0.03332961187807864	0.2154295537689481	-32.20346771609854	-12.10161200913741	5.204613128736747	-2.830563648528115	-658.5704223440464	-76.71015896392309	-20.40650361304258	-0.2548845754989657	0.3477561927597527	-0.693396952562324	0.218134213637555	0.3328943110290957	-0.1467579050509963	1.255447916015819	-0.1088819655445862	-0.1088819655580982	-0.2916534237987503	-0.01623338827484217	-0.0158282369194779	0.3943910005297845	2.396583512825656e-08	1.532598088435544e-06	-7.269428677895539e-08	2.114643327875797e-07	8.647266984598159e-08	6.451336209855467e-07	1.30853295404145e-07
1.56	0.09066498286186121	0.04023789569442919	0.8954349172215631	0.3981289810603104	-0.3145801420131065	-0.192423808941009	-0.7217910149733302	0.6041062575123318	0.6041062575123601	-0.1161907856063906	-0.1745311893100381	0.1641474226826329	0.03848421334099001	0.1078688504452107	0.1791298516714042	0.2818981485102174	-1.496112898493092	0.1253886829102245	-0.6020701454316426	0.929693689062363	-1.859430935340157	-1.859430935340105	-0.1432661810283525	5.405679674955244e-05	-0.5809389617938052	-0.07008742227780058	-0.1071777270549538	0.02085655676513622	-0.005059298498926181	-0.2062699796965735	0.03199362137371339	0.03258324086032414	0.209430932354828	-31.17228639433559	-11.97406389502383	5.202609911701685	-3.06510132169036	-655.8046756306695	-76.81516345806486	-20.91288354754777	-0.261796860780777	0.3306096258117373	-0.7224219288204566	0.347616022024515	0.3377589188141752	-0.06006282296964684	1.163938430846206	0.05696179581738503	0.05696179581737049	-0.2801055852972255	0.03591634065074733	0.04801732214154977	0.4173576582251378	2.470763251200969e-08	1.515964029846523e-06	-9.843721515148881e-08	2.063127706194972e-07	9.311040078954685e-08	6.402186592630764e-07	1.325768495108909e-07
